<svg width="366" height="72" viewBox="0 0 366 72" fill="none" xmlns="http://www.w3.org/2000/svg">
<path d="M3.071 50V24.174H11.988C16.65 24.174 19.388 26.801 19.388 30.945C19.388 33.942 17.797 35.681 15.281 36.421V36.606C18.278 37.309 20.276 39.159 20.276 42.711C20.276 46.929 17.353 50 12.987 50H3.071ZM7.141 46.818H11.729C14.467 46.818 16.021 45.708 16.021 43.229V41.897C16.021 39.381 14.467 38.308 11.729 38.308H7.141V46.818ZM7.141 35.274H11.137C13.727 35.274 15.133 34.312 15.133 31.981V30.649C15.133 28.318 13.727 27.356 11.137 27.356H7.141V35.274ZM59.5925 50H55.1895L53.2285 43.118H45.0145L43.0535 50H38.8355L46.3835 24.174H52.0445L59.5925 50ZM52.4515 39.677L49.2695 28.355H48.9735L45.7915 39.677H52.4515ZM97.4661 27.652H89.3631V50H85.2191V27.652H77.1161V24.174H97.4661V27.652ZM135.562 27.652H127.459V50H123.315V27.652H115.212V24.174H135.562V27.652ZM172.288 50H156.378V24.174H160.522V46.522H172.288V50ZM209.829 50H193.66V24.174H209.829V27.652H197.804V35.163H209.385V38.641H197.804V46.522H209.829V50ZM288.166 50H283.763L281.802 43.118H273.588L271.627 50H267.409L274.957 24.174H280.618L288.166 50ZM281.025 39.677L277.843 28.355H277.547L274.365 39.677H281.025ZM318.454 36.754L326.298 50H321.599L318.676 44.894L315.938 40.01H315.716L312.904 44.894L309.87 50H305.467L313.385 36.754L305.948 24.174H310.647L313.274 28.799L315.938 33.572H316.123L318.787 28.799L321.525 24.174H325.928L318.454 36.754ZM362.211 50H346.042V24.174H362.211V27.652H350.186V35.163H361.767V38.641H350.186V46.522H362.211V50Z" fill="#4B4B4B"/>
</svg>
