<svg width="360" height="26" viewBox="0 0 360 26" fill="none" xmlns="http://www.w3.org/2000/svg">
<path d="M0.0710002 26V0.173999H8.988C13.65 0.173999 16.388 2.801 16.388 6.945C16.388 9.942 14.797 11.681 12.281 12.421V12.606C15.278 13.309 17.276 15.159 17.276 18.711C17.276 22.929 14.353 26 9.987 26H0.0710002ZM4.141 22.818H8.729C11.467 22.818 13.021 21.708 13.021 19.229V17.897C13.021 15.381 11.467 14.308 8.729 14.308H4.141V22.818ZM4.141 11.274H8.137C10.727 11.274 12.133 10.312 12.133 7.981V6.649C12.133 4.318 10.727 3.356 8.137 3.356H4.141V11.274ZM56.5925 26H52.1895L50.2285 19.118H42.0145L40.0535 26H35.8355L43.3835 0.173999H49.0445L56.5925 26ZM49.4515 15.677L46.2695 4.355H45.9735L42.7915 15.677H49.4515ZM94.4661 3.652H86.3631V26H82.2191V3.652H74.1161V0.173999H94.4661V3.652ZM132.562 3.652H124.459V26H120.315V3.652H112.212V0.173999H132.562V3.652ZM169.288 26H153.378V0.173999H157.522V22.522H169.288V26ZM206.829 26H190.66V0.173999H206.829V3.652H194.804V11.163H206.385V14.641H194.804V22.522H206.829V26ZM285.166 26H280.763L278.802 19.118H270.588L268.627 26H264.409L271.957 0.173999H277.618L285.166 26ZM278.025 15.677L274.843 4.355H274.547L271.365 15.677H278.025ZM315.454 12.754L323.298 26H318.599L315.676 20.894L312.938 16.01H312.716L309.904 20.894L306.87 26H302.467L310.385 12.754L302.948 0.173999H307.647L310.274 4.799L312.938 9.572H313.123L315.787 4.799L318.525 0.173999H322.928L315.454 12.754ZM359.211 26H343.042V0.173999H359.211V3.652H347.186V11.163H358.767V14.641H347.186V22.522H359.211V26Z" fill="#4B4B4B"/>
</svg>
