<svg width="729" height="128" viewBox="0 0 729 128" fill="none" xmlns="http://www.w3.org/2000/svg">
<path d="M0 0H31.0768C41.7386 0 49.9167 2.72603 55.6111 8.1781C61.3055 13.509 64.1526 21.2631 64.1526 31.4403V32.1672C64.1526 36.7712 63.6074 40.8299 62.517 44.3435C61.5478 47.857 60.1545 50.8254 58.3371 53.2485C56.6409 55.6717 54.7024 57.5496 52.5216 58.8823C50.3407 60.215 48.0993 61.0026 45.7974 61.2449V63.0622C48.0993 63.3045 50.4619 64.1526 52.885 65.6065C55.4293 67.0604 57.6707 69.1201 59.6093 71.7855C61.6689 74.451 63.3045 77.6011 64.5161 81.2358C65.8488 84.8705 66.5152 88.9898 66.5152 93.5938V95.5929C66.5152 105.649 63.4257 113.464 57.2467 119.037C51.1888 124.489 42.5867 127.215 31.4402 127.215H0V0ZM25.443 21.99V51.2494H30.7133C33.7422 51.2494 35.8019 50.5225 36.8923 49.0686C38.1039 47.6147 38.7097 45.2521 38.7097 41.9809V31.4403C38.7097 28.0479 38.1039 25.6247 36.8923 24.1708C35.8019 22.7169 33.7422 21.99 30.7133 21.99H25.443ZM25.443 73.2394V105.043H31.2585C34.2874 105.043 36.4077 104.316 37.6193 102.862C38.952 101.408 39.6183 98.9853 39.6183 95.5929V82.8714C39.6183 79.479 38.952 77.0559 37.6193 75.602C36.4077 74.0269 34.2269 73.2394 31.0768 73.2394H25.443Z" fill="#4B4B4B"/>
<path d="M97.2115 0H137.012L150.642 127.215H125.199L117.748 43.2531H115.93L108.479 127.215H83.0361L97.2115 0ZM128.107 95.5929H105.026V73.6029H128.107V95.5929Z" fill="#4B4B4B"/>
<path d="M224.922 0V21.99H206.203V127.215H180.76V21.99H162.223V0H224.922Z" fill="#4B4B4B"/>
<path d="M306.057 0V21.99H287.338V127.215H261.895V21.99H243.358V0H306.057Z" fill="#4B4B4B"/>
<path d="M327.025 0H352.467V105.043H373.367V127.215H327.025V0Z" fill="#4B4B4B"/>
<path d="M440.127 21.99H419.227V49.6138H439.763V71.6038H419.227V105.043H440.672V127.215H393.784V0H440.127V21.99Z" fill="#4B4B4B"/>
<path d="M521.195 0H560.995L574.625 127.215H549.182L541.731 43.2531H539.914L532.462 127.215H507.019L521.195 0ZM552.09 95.5929H529.009V73.6029H552.09V95.5929Z" fill="#4B4B4B"/>
<path d="M619.847 0L626.39 50.886H628.207L634.75 0H661.283L649.652 62.8805L661.647 127.215H635.113L628.025 74.1481H626.39L619.302 127.215H592.769L604.945 62.8805L593.132 0H619.847Z" fill="#4B4B4B"/>
<path d="M728.284 21.99H707.384V49.6138H727.92V71.6038H707.384V105.043H728.829V127.215H681.941V0H728.284V21.99Z" fill="#4B4B4B"/>
</svg>
