<svg width="729" height="128" viewBox="0 0 729 128" fill="none" xmlns="http://www.w3.org/2000/svg">
<path d="M0.0898438 0H31.1666C41.8284 0 50.0065 2.72603 55.7009 8.1781C61.3953 13.509 64.2425 21.2631 64.2425 31.4403V32.1672C64.2425 36.7712 63.6973 40.8299 62.6069 44.3435C61.6376 47.857 60.2443 50.8254 58.427 53.2485C56.7308 55.6717 54.7922 57.5496 52.6114 58.8823C50.4306 60.215 48.1892 61.0026 45.8872 61.2449V63.0622C48.1892 63.3045 50.5517 64.1526 52.9749 65.6065C55.5192 67.0604 57.7606 69.1201 59.6991 71.7855C61.7588 74.451 63.3944 77.6011 64.606 81.2358C65.9387 84.8705 66.605 88.9898 66.605 93.5938V95.5929C66.605 105.649 63.5155 113.464 57.3365 119.037C51.2787 124.489 42.6765 127.215 31.5301 127.215H0.0898438V0ZM25.5328 21.99V51.2494H30.8031C33.8321 51.2494 35.8917 50.5225 36.9822 49.0686C38.1937 47.6147 38.7995 45.2521 38.7995 41.9809V31.4403C38.7995 28.0479 38.1937 25.6247 36.9822 24.1708C35.8917 22.7169 33.8321 21.99 30.8031 21.99H25.5328ZM25.5328 73.2394V105.043H31.3484C34.3773 105.043 36.4975 104.316 37.7091 102.862C39.0418 101.408 39.7082 98.9853 39.7082 95.5929V82.8714C39.7082 79.479 39.0418 77.0559 37.7091 75.602C36.4975 74.0269 34.3167 73.2394 31.1666 73.2394H25.5328Z" fill="white"/>
<path d="M97.3013 0H137.101L150.732 127.215H125.289L117.837 43.2531H116.02L108.569 127.215H83.1259L97.3013 0ZM128.196 95.5929H105.116V73.6029H128.196V95.5929Z" fill="white"/>
<path d="M225.012 0V21.99H206.293V127.215H180.85V21.99H162.313V0H225.012Z" fill="white"/>
<path d="M306.147 0V21.99H287.428V127.215H261.985V21.99H243.448V0H306.147Z" fill="white"/>
<path d="M327.114 0H352.557V105.043H373.457V127.215H327.114V0Z" fill="white"/>
<path d="M440.216 21.99H419.317V49.6138H439.853V71.6038H419.317V105.043H440.762V127.215H393.874V0H440.216V21.99Z" fill="white"/>
<path d="M521.285 0H561.085L574.715 127.215H549.272L541.821 43.2531H540.003L532.552 127.215H507.109L521.285 0ZM552.18 95.5929H529.099V73.6029H552.18V95.5929Z" fill="white"/>
<path d="M619.937 0L626.48 50.886H628.297L634.84 0H661.373L649.742 62.8805L661.736 127.215H635.203L628.115 74.1481H626.48L619.392 127.215H592.859L605.035 62.8805L593.222 0H619.937Z" fill="white"/>
<path d="M728.374 21.99H707.474V49.6138H728.01V71.6038H707.474V105.043H728.919V127.215H682.031V0H728.374V21.99Z" fill="white"/>
</svg>
